<svg width="60" height="56" viewBox="0 0 60 56" fill="none" xmlns="http://www.w3.org/2000/svg">
<path d="M0.5 0.5H55C57.4853 0.5 59.5 2.51472 59.5 5V55.5H5C2.51472 55.5 0.5 53.4853 0.5 51V0.5Z" fill="#F05A00" stroke="#F05A00"/>
<path d="M43.3346 24.7735V26.0001C43.333 28.8754 42.402 31.673 40.6804 33.9759C38.9589 36.2788 36.539 37.9635 33.7818 38.7787C31.0245 39.5939 28.0776 39.496 25.3806 38.4996C22.6835 37.5032 20.3808 35.6616 18.8159 33.2496C17.251 30.8375 16.5077 27.9842 16.6969 25.1152C16.8861 22.2462 17.9976 19.5152 19.8657 17.3296C21.7338 15.1439 24.2583 13.6207 27.0629 12.987C29.8674 12.3534 32.8017 12.6433 35.428 13.8135" stroke="white" stroke-width="2" stroke-linecap="round" stroke-linejoin="round"/>
<path d="M43.3333 15.3335L30 28.6802L26 24.6802" stroke="white" stroke-width="2" stroke-linecap="round" stroke-linejoin="round"/>
</svg>
